<?xml version="1.0" standalone="no"?>
<!DOCTYPE svg PUBLIC "-//W3C//DTD SVG 20010904//EN"
 "http://www.w3.org/TR/2001/REC-SVG-20010904/DTD/svg10.dtd">
<svg version="1.0" xmlns="http://www.w3.org/2000/svg"
 width="640.000000pt" height="640.000000pt" viewBox="0 0 640.000000 640.000000"
 preserveAspectRatio="xMidYMid meet">
<metadata>
Created by potrace 1.11, written by Peter Selinger 2001-2013
</metadata>
<g transform="translate(0.000000,640.000000) scale(0.100000,-0.100000)"
fill="#000000" stroke="none">
<path d="M1988 5426 c-1 -2 -53 -6 -113 -9 -61 -3 -117 -8 -125 -11 -8 -3 -28
-7 -45 -9 -170 -25 -383 -113 -566 -233 -88 -58 -247 -213 -312 -305 -49 -70
-140 -239 -150 -280 -3 -13 -15 -57 -26 -96 -26 -96 -35 -167 -35 -288 1 -248
53 -432 172 -610 134 -198 387 -377 652 -460 77 -24 354 -88 440 -101 19 -3
51 -9 70 -14 19 -5 53 -12 75 -15 22 -4 45 -8 50 -9 6 -2 28 -6 50 -10 73 -14
105 -27 106 -44 3 -73 59 -279 106 -392 31 -75 126 -266 157 -314 31 -49 31
-52 14 -69 -61 -59 -218 -122 -335 -133 -157 -15 -297 -6 -448 31 -45 10 -174
74 -232 113 -155 105 -275 301 -312 507 -5 27 -7 53 -5 57 10 16 -17 16 -87
-3 -41 -11 -85 -22 -99 -25 -14 -3 -50 -12 -80 -21 -30 -9 -56 -16 -57 -16
-35 -3 -387 -106 -386 -113 1 -6 4 -28 7 -50 6 -57 32 -160 56 -228 71 -206
157 -343 310 -497 326 -327 789 -478 1340 -435 92 7 247 31 295 46 213 67 349
133 487 236 l56 42 74 -45 c124 -78 393 -198 488 -218 8 -2 42 -10 75 -18 92
-24 181 -39 310 -52 60 -6 314 -6 360 0 22 2 60 7 85 10 71 10 248 53 325 81
80 29 207 94 292 151 64 42 222 196 249 243 10 16 21 30 24 30 3 0 12 -55 19
-122 14 -132 20 -185 25 -233 2 -16 4 -42 5 -58 l1 -27 312 2 312 3 0 1018 1
1017 -976 0 c-922 0 -977 -1 -981 -17 -6 -30 -2 -632 5 -639 4 -4 281 -7 617
-7 575 1 610 0 610 -17 0 -28 -48 -166 -79 -228 -103 -204 -314 -375 -568
-461 -160 -54 -448 -70 -633 -36 -187 35 -361 106 -501 208 -63 45 -63 43 -43
122 12 46 10 275 -3 350 -25 148 -90 313 -171 432 -51 76 -168 200 -233 250
l-51 38 6 95 c28 445 294 856 667 1033 100 47 255 95 364 111 82 13 325 14
396 2 240 -40 443 -141 605 -303 94 -95 197 -260 234 -378 7 -22 15 -43 19
-47 6 -6 346 108 426 142 11 5 72 27 135 48 188 65 171 54 154 104 -8 24 -17
52 -21 63 -19 59 -142 282 -201 364 -102 143 -241 283 -397 399 -27 20 -147
91 -200 119 -135 70 -393 160 -510 177 -22 3 -49 7 -60 10 -11 2 -51 7 -90 11
-38 4 -83 9 -100 11 -38 5 -315 4 -375 -1 -78 -6 -153 -17 -275 -40 -181 -34
-427 -132 -617 -247 -54 -32 -100 -58 -103 -58 -3 0 -20 14 -38 30 -102 96
-389 246 -527 275 -8 2 -46 10 -85 19 -87 19 -127 24 -257 31 -57 4 -108 8
-115 10 -6 2 -13 2 -15 1z m207 -700 c91 -22 217 -84 282 -141 l51 -45 -35
-53 c-70 -104 -202 -405 -228 -520 -2 -12 -12 -53 -20 -92 -9 -38 -18 -85 -21
-104 -2 -19 -6 -37 -9 -39 -2 -3 -33 1 -67 8 -35 7 -74 14 -88 16 -14 3 -32 7
-40 9 -8 3 -33 7 -55 10 -22 4 -47 8 -55 10 -8 2 -31 7 -50 10 -252 41 -406
146 -468 318 -8 23 -16 78 -18 122 -9 245 175 437 481 504 60 13 261 5 340
-13z"/>
<path d="M1254 1194 c-51 -27 -69 -78 -44 -125 11 -19 79 -59 101 -59 6 0 24
-9 40 -21 44 -31 36 -95 -13 -103 -7 -1 -17 -4 -23 -8 -18 -10 -55 11 -73 42
-19 33 -21 34 -41 21 -38 -24 43 -101 107 -101 70 0 116 44 114 109 -2 46 -33
77 -105 103 -65 24 -87 51 -68 86 15 29 66 38 96 18 14 -9 25 -20 25 -25 0 -5
9 -7 20 -4 23 6 24 8 10 34 -23 42 -96 59 -146 33z"/>
<path d="M2762 1198 c-17 -17 -15 -36 6 -47 20 -11 42 3 42 26 0 19 -35 34
-48 21z"/>
<path d="M3718 1200 c-78 -23 -128 -86 -132 -168 -8 -134 127 -229 251 -177
60 25 89 66 99 135 3 22 2 40 -3 41 -4 1 -43 2 -85 3 -55 1 -79 -2 -82 -11 -8
-19 14 -28 74 -28 49 0 55 -2 52 -20 -9 -52 -67 -95 -128 -95 -43 0 -93 30
-118 71 -74 125 71 273 190 194 20 -13 28 -14 40 -4 21 17 17 25 -22 44 -42
20 -98 26 -136 15z"/>
<path d="M5160 1200 c-20 -12 -21 -39 -2 -49 23 -11 42 -3 42 19 0 24 -22 41
-40 30z"/>
<path d="M1594 1025 c0 -172 0 -175 21 -175 20 0 21 5 20 76 -1 56 3 82 17
104 22 37 60 48 93 26 24 -16 25 -21 25 -111 0 -87 2 -95 19 -95 24 0 28 31
21 137 -4 57 -10 77 -27 94 -27 27 -93 31 -120 6 -11 -9 -22 -17 -24 -17 -3 0
-4 29 -4 65 1 60 0 65 -20 65 -20 0 -21 -4 -21 -175z"/>
<path d="M2046 1099 c-15 -4 -37 -16 -47 -25 -28 -25 -1 -39 37 -19 39 20 66
19 92 -5 28 -26 31 -65 5 -51 -10 5 -40 8 -66 6 -57 -3 -83 -24 -92 -73 -5
-28 0 -38 25 -64 27 -27 36 -30 71 -25 22 3 49 13 59 22 16 15 18 14 23 -5 3
-13 10 -18 21 -14 22 8 23 172 1 213 -19 38 -74 55 -129 40z m104 -153 c0 -22
-30 -54 -61 -65 -27 -9 -33 -8 -56 15 -23 23 -24 27 -10 47 24 36 127 39 127
3z"/>
<path d="M2434 1088 c-30 -16 -36 -17 -31 -4 5 12 0 16 -16 16 -22 0 -23 -2
-23 -125 0 -122 0 -126 20 -123 19 3 21 10 22 73 1 111 11 132 69 142 12 2 30
-3 40 -11 17 -12 20 -28 22 -103 1 -48 2 -91 2 -95 1 -5 10 -8 22 -8 20 0 21
4 17 105 -3 89 -6 107 -23 125 -29 29 -76 32 -121 8z"/>
<path d="M3050 1103 c-13 -3 -35 -13 -47 -23 -19 -15 -21 -20 -9 -29 11 -10
21 -9 45 3 16 9 38 16 49 16 24 0 62 -36 62 -60 0 -17 -4 -18 -29 -9 -51 18
-120 -2 -141 -41 -17 -31 -11 -56 19 -89 35 -38 85 -42 125 -10 21 17 26 18
26 5 0 -9 8 -16 20 -16 18 0 20 7 20 84 0 45 -5 97 -10 113 -15 42 -71 66
-130 56z m98 -148 c12 -12 -20 -57 -50 -69 -35 -15 -72 -5 -83 22 -8 21 20 60
47 64 23 4 76 -7 86 -17z"/>
<path d="M4183 1100 c-12 -5 -26 -17 -32 -27 -10 -16 -10 -16 -11 5 0 15 -6
22 -20 22 -19 0 -20 -7 -20 -125 0 -118 1 -125 20 -125 21 0 22 5 21 85 -1 91
30 142 74 125 19 -7 24 -5 28 11 3 12 -1 23 -13 29 -21 11 -18 11 -47 0z"/>
<path d="M4453 1101 c-13 -3 -32 -14 -44 -25 -20 -16 -20 -19 -6 -28 11 -6 25
-3 42 8 35 23 88 12 103 -22 17 -37 15 -46 -8 -34 -23 12 -89 7 -119 -10 -46
-24 -54 -84 -17 -119 35 -33 88 -38 126 -11 19 14 30 17 28 9 -2 -8 7 -15 19
-17 22 -3 23 -2 19 97 -3 102 -9 121 -48 142 -24 13 -67 17 -95 10z m104 -144
c9 -10 -15 -50 -41 -66 -36 -24 -82 -12 -88 24 -6 31 3 44 38 54 25 7 79 0 91
-12z"/>
<path d="M4840 1096 c-82 -27 -108 -153 -44 -217 42 -41 107 -49 153 -17 40
27 49 46 26 54 -9 4 -25 -2 -39 -15 -82 -77 -186 60 -107 140 36 35 73 38 104
6 22 -22 57 -25 57 -6 0 12 -49 59 -64 60 -6 1 -20 3 -32 4 -11 1 -36 -3 -54
-9z"/>
<path d="M5440 1100 c-14 -4 -35 -13 -47 -21 -21 -12 -21 -15 -6 -31 15 -16
17 -17 28 -1 18 24 79 25 104 1 22 -19 30 -65 10 -52 -24 14 -78 15 -113 0
-61 -25 -70 -90 -20 -134 32 -28 92 -26 124 3 17 15 20 16 20 3 0 -17 24 -31
34 -21 3 4 6 47 6 96 0 66 -4 96 -17 118 -23 39 -70 54 -123 39z m98 -153 c8
-40 -65 -79 -112 -61 -19 7 -21 57 -3 72 30 25 110 18 115 -11z"/>
<path d="M2761 971 c1 -121 3 -128 20 -124 21 6 20 5 21 133 0 121 0 120 -22
120 -19 0 -20 -6 -19 -129z"/>
<path d="M5150 976 c0 -100 3 -125 15 -129 22 -9 26 5 27 105 1 148 0 148 -22
148 -19 0 -20 -7 -20 -124z"/>
</g>
</svg>
