<svg id="Layer_1" enable-background="new 0 0 512 512" height="512" viewBox="0 0 512 512" width="512" xmlns="http://www.w3.org/2000/svg"><g><path d="m494.5 60.5c9.649 0 17.5-7.851 17.5-17.5v-25.5c0-9.649-7.851-17.5-17.5-17.5h-477c-9.649 0-17.5 7.851-17.5 17.5v25.5c-.026 9.847 8.288 17.914 18.19 17.5v236.053c-10.526 3.273-18.19 13.105-18.19 24.694s7.664 21.421 18.19 24.694v105.559h-.69c-9.649 0-17.5 7.851-17.5 17.5v25.5c0 9.649 7.851 17.5 17.5 17.5h477c9.649 0 17.5-7.851 17.5-17.5v-25.5c0-9.649-7.851-17.5-17.5-17.5h-.69v-105.559c10.526-3.273 18.19-13.105 18.19-24.694s-7.664-21.421-18.19-24.694v-236.053zm-479.5 260.747c0-5.985 4.869-10.854 10.854-10.854h48.434c5.984 0 10.854 4.869 10.854 10.854s-4.869 10.854-10.854 10.854h-48.434c-5.985 0-10.854-4.869-10.854-10.854zm133.06-215.197c8.6 0 17.104-1.794 24.983-5.224 2.433 4.472 5.191 8.732 8.25 12.738-10.382 4.912-21.717 7.486-33.233 7.486-19.019 0-37.451-7.038-51.902-19.817-12.153-10.746-20.885-24.982-25.159-40.733h15.655c9.045 27.097 33.531 45.55 61.406 45.55zm-45.334-45.55h58.49c.685 9.302 2.639 18.244 5.675 26.646-5.95 2.564-12.357 3.904-18.831 3.904-19.702 0-37.226-12.174-45.334-30.55zm153.274 60.55c33.45 0 61.074-26.544 64.656-60.55h15.062c-3.294 41.256-38.843 74.471-79.718 74.968-37.716.458-75.321-24.548-79.717-74.968h15.062c3.581 34.006 31.205 60.55 64.655 60.55zm-49.55-60.55h99.1c-3.45 25.711-24.35 45.55-49.55 45.55s-46.1-19.839-49.55-45.55zm157.49 45.55c27.874 0 52.361-18.453 61.406-45.55h15.655c-4.275 15.751-13.007 29.987-25.158 40.733-14.451 12.779-32.884 19.817-51.902 19.817-11.522 0-22.858-2.573-33.234-7.484 3.06-4.007 5.818-8.268 8.252-12.741 7.884 3.43 16.388 5.225 24.981 5.225zm-18.83-18.906c3.036-8.401 4.989-17.342 5.674-26.644h58.49c-8.108 18.376-25.632 30.55-45.334 30.55-6.468 0-12.875-1.341-18.83-3.906zm58.538 145.413c-17.351-29.917-28.656-62.422-33.681-96.729 18.904-1.24 37.043-8.27 52.033-20.203-2.828 29.228-1.214 58.362 4.865 86.887 7.025 32.983 19.727 64.163 37.807 92.88h-10.714c-19.88-18.423-36.803-39.544-50.31-62.835zm29.303 63.283c-4.652.87-8.867 2.988-12.287 5.996-29.082-17.876-50.695-47.064-61.153-63.179-21.354-32.898-35.315-70.345-41.574-111.337.807-.716 1.6-1.448 2.383-2.191 10.723 5.716 22.424 9.263 34.463 10.46 5.117 37.088 17.169 72.215 35.889 104.493 11.74 20.245 25.925 38.934 42.279 55.758zm8.584-96.453c-7.118-33.4-7.779-67.697-1.997-101.969 8.071-10.923 13.855-23.509 16.916-36.918h22.355v229.139c-17.898-27.84-30.435-58.145-37.274-90.252zm-351.536-83.762c14.99 11.935 33.129 18.964 52.034 20.204-5.026 34.306-16.33 66.812-33.681 96.729-13.506 23.291-30.43 44.412-50.311 62.835h-10.714c18.08-28.717 30.782-59.897 37.807-92.88 6.079-28.523 7.692-57.658 4.865-86.888zm-17.537-18.207c5.779 34.277 5.119 68.575-1.997 101.97-6.839 32.106-19.376 62.411-37.274 90.251v-229.139h22.355c3.061 13.409 8.845 25.994 16.916 36.918zm-19.445 249.683h9.985c9.493 18.229 18.663 36.886 27.279 55.533 6.479 14.034 14.386 32.895 20.916 48.866h-32.14c-1.934-11.399-4.186-23.003-6.754-34.614-5.212-23.495-11.689-46.922-19.286-69.785zm10.831 104.399h-30.658v-104.399h3.983c8.127 23.874 15.023 48.41 20.484 73.029 2.326 10.512 4.395 21.024 6.191 31.37zm430.652 15c1.379 0 2.5 1.122 2.5 2.5v25.5c0 1.378-1.121 2.5-2.5 2.5h-477c-1.379 0-2.5-1.122-2.5-2.5v-25.5c0-1.378 1.121-2.5 2.5-2.5h289.172c4.143 0 7.5-3.358 7.5-7.5s-3.357-7.5-7.5-7.5h-179.279c-6.964-17.15-16.113-39.166-23.495-55.155-7.713-16.693-15.866-33.394-24.294-49.796 11.713-2.459 20.536-12.868 20.536-25.302 0-2.308-.308-4.545-.879-6.676 31.557-19.432 54.662-50.572 65.809-67.748 6.524-10.052 12.481-20.673 17.706-31.568 1.791-3.735.215-8.214-3.52-10.005-3.736-1.79-8.215-.215-10.006 3.52-4.947 10.317-10.587 20.373-16.763 29.888-10.462 16.119-32.084 45.32-61.153 63.179-3.419-3.007-7.635-5.125-12.287-5.996 16.354-16.825 30.538-35.513 42.279-55.758 18.72-32.279 30.772-67.406 35.889-104.494 12.034-1.197 23.735-4.745 34.462-10.461.785.745 1.58 1.478 2.389 2.196-2.619 17.118-6.637 33.859-11.995 49.813-1.319 3.927.795 8.179 4.722 9.498 3.828 1.286 8.162-.747 9.497-4.722 4.818-14.343 8.599-29.285 11.318-44.55 14.184 8.689 30.731 13.688 48.39 13.688 17.661 0 34.208-4.999 48.393-13.689 7.109 40.082 21.376 76.862 42.536 109.462 11.144 17.171 34.239 48.298 65.81 67.747-.57 2.131-.879 4.368-.879 6.677 0 12.434 8.823 22.843 20.536 25.302-8.428 16.402-16.581 33.103-24.295 49.798-7.381 15.987-16.529 38.003-23.494 55.153h-42.935c-4.143 0-7.5 3.358-7.5 7.5s3.357 7.5 7.5 7.5h152.83zm-54.804-49.61c-2.568 11.607-4.819 23.211-6.753 34.61h-32.14c6.53-15.972 14.437-34.832 20.915-48.864 8.616-18.648 17.786-37.306 27.28-55.535h9.985c-7.597 22.864-14.074 46.29-19.287 69.789zm35.131-69.789h3.983v104.399h-30.657c1.796-10.346 3.864-20.857 6.189-31.366 5.462-24.622 12.358-49.159 20.485-73.033zm22.173-25.854c0 5.985-4.869 10.854-10.854 10.854h-48.434c-5.984 0-10.854-4.869-10.854-10.854s4.869-10.854 10.854-10.854h48.434c5.985 0 10.854 4.869 10.854 10.854zm-479.5-275.747c-1.379 0-2.5-1.122-2.5-2.5v-25.5c0-1.378 1.121-2.5 2.5-2.5h477c1.379 0 2.5 1.122 2.5 2.5v25.5c0 1.378-1.121 2.5-2.5 2.5z"/></g></svg>